<svg class="icon" viewBox="0 0 1024 1024" version="1.1" xmlns="http://www.w3.org/2000/svg" width="64" height="64"><path d="M254.816 286.4a317.504 317.504 0 0 1 450.144 0c124.512 124.704 124.512 326.688 0 451.392a317.76 317.76 0 0 1-450.144-0.192l-203.136-203.84a30.848 30.848 0 0 1 0-43.584L254.816 286.4z m401.92 59.84a233.28 233.28 0 0 0-330.656 0L176.864 496a22.784 22.784 0 0 0 0 32l149.44 149.92a233.312 233.312 0 0 0 330.688 0 234.88 234.88 0 0 0-0.192-331.648h-0.064zM972.384 492.64l-90.592-91.008a7.552 7.552 0 0 0-12.8 7.104 481.984 481.984 0 0 1 0 211.2c-1.664 7.584 7.488 12.48 12.8 7.136l90.592-90.944a30.912 30.912 0 0 0 0-43.52z" fill="#0077FF"></path><path d="M493.28 354.784c86.784 0 157.216 71.456 157.216 159.52 0 88.16-70.336 159.616-157.216 159.616-86.848 0-157.28-71.456-157.28-159.616 0-88.064 70.4-159.52 157.28-159.52z" fill="#A6D0FF"></path></svg>