<svg t="1775984689718" class="icon" viewBox="0 0 1024 1024" version="1.1" xmlns="http://www.w3.org/2000/svg" p-id="9497" width="48" height="48"><path d="M710.8 98.1H318.5c-120 0-217.6 97.6-217.6 217.6V708c0 120 97.6 217.6 217.6 217.6h392.3c120 0 217.6-97.6 217.6-217.6V315.7c0.1-120-97.6-217.6-217.6-217.6z m-30 57.4L652.6 214c-8.8 18.3-27.7 30.2-48.1 30.2H424.9c-20.4 0-39.2-11.9-48.1-30.2l-28.2-58.6h332.2zM871.1 708c0 88.4-71.9 160.3-160.3 160.3H318.5c-88.4 0-160.3-71.9-160.3-160.3V315.7c0-77.4 55.2-142.2 128.2-157l38.6 80.2c18.3 38.1 57.5 62.7 99.7 62.7h179.6c42.3 0 81.4-24.6 99.7-62.7l38.6-80.2c73.1 14.9 128.2 79.6 128.2 157V708z" p-id="9498"></path><path d="M486.9 408.2c-4.6-9.9-14.1-15.8-24.3-16.4-0.6 0-1.3-0.1-1.9-0.1-0.7 0-1.4 0.1-2.1 0.1-10.1 0.7-19.6 6.5-24.2 16.4l-142.7 306c-6.7 14.4-0.5 31.4 13.9 38.1 3.9 1.8 8 2.7 12.1 2.7 10.8 0 21.1-6.1 26-16.6l34.4-73.8h165.1l34.4 73.8c4.9 10.4 15.2 16.6 26 16.6 4.1 0 8.2-0.9 12.1-2.7 14.4-6.7 20.6-23.8 13.9-38.1l-142.7-306z m-82 199.1l55.8-119.7 55.8 119.7H404.9zM683.1 391.2c-15.8 0-28.7 12.8-28.7 28.7v306.9c0 15.8 12.8 28.7 28.7 28.7s28.7-12.8 28.7-28.7V419.9c0-15.9-12.8-28.7-28.7-28.7z" p-id="9499"></path></svg>