<svg t="1775984826390" class="icon" viewBox="0 0 1024 1024" version="1.1" xmlns="http://www.w3.org/2000/svg" p-id="11872" width="48" height="48"><path d="M762.112 325.632h-225.536v-65.792c49.408-11.264 86.528-55.296 86.528-108.288 0-61.184-49.92-110.848-111.104-110.848s-111.104 49.664-111.104 110.848c0 52.736 37.12 97.024 86.528 108.288v65.792h-225.536c-87.808 0-158.976 71.424-158.976 158.976V706.56c0 87.808 71.424 158.976 158.976 158.976h500.224c87.808 0 158.976-71.424 158.976-158.976v-221.696c0-87.808-71.424-159.232-158.976-159.232z m-312.064-174.08c0-34.048 27.904-61.952 61.952-61.952s61.952 27.904 61.952 61.952-27.904 61.952-61.952 61.952-61.952-27.904-61.952-61.952zM872.192 706.56c0 60.672-49.408 110.08-110.08 110.08H261.888c-60.672 0-110.08-49.408-110.08-110.08v-221.696c0-60.672 49.408-110.08 110.08-110.08h500.224c60.672 0 110.08 49.408 110.08 110.08V706.56zM724.224 934.4H299.776c-13.568 0-24.576 11.008-24.576 24.576s11.008 24.576 24.576 24.576h424.192c13.568 0 24.576-11.008 24.576-24.576s-10.752-24.576-24.32-24.576zM29.696 478.464c-13.568 0-24.576 11.008-24.576 24.576v185.088c0 13.568 11.008 24.576 24.576 24.576s24.576-11.008 24.576-24.576v-185.088c0-13.568-11.008-24.576-24.576-24.576zM994.304 478.464c-13.568 0-24.576 11.008-24.576 24.576v185.088c0 13.568 11.008 24.576 24.576 24.576s24.576-11.008 24.576-24.576v-185.088c0-13.568-11.008-24.576-24.576-24.576z" p-id="11873"></path><path d="M349.184 467.968c-70.4 0-127.488 57.088-127.488 127.488 0 70.4 57.344 127.488 127.488 127.488s127.744-57.088 127.744-127.488c-0.256-70.144-57.344-127.488-127.744-127.488z m0 206.08c-43.264 0-78.592-35.328-78.592-78.592s35.328-78.592 78.592-78.592 78.592 35.328 78.592 78.592-35.328 78.592-78.592 78.592zM674.816 467.968c-70.4 0-127.744 57.088-127.744 127.488 0 70.4 57.344 127.488 127.744 127.488s127.488-57.088 127.488-127.488c0.256-70.144-57.088-127.488-127.488-127.488z m0 206.08c-43.264 0-78.592-35.328-78.592-78.592s35.328-78.592 78.592-78.592 78.592 35.328 78.592 78.592-35.328 78.592-78.592 78.592z" p-id="11874"></path></svg>